<?xml version="1.0" encoding="utf-8"?>
<!-- Generator: Adobe Illustrator 16.2.0, SVG Export Plug-In . SVG Version: 6.00 Build 0)  -->
<!DOCTYPE svg PUBLIC "-//W3C//DTD SVG 1.1//EN" "http://www.w3.org/Graphics/SVG/1.1/DTD/svg11.dtd">
<svg version="1.1" id="Layer_1" xmlns="http://www.w3.org/2000/svg" xmlns:xlink="http://www.w3.org/1999/xlink" x="0px" y="0px"
	 width="699px" height="146px" viewBox="0 0 699 146" enable-background="new 0 0 699 146" xml:space="preserve">
<g enable-background="new    ">
	<path fill="#C85432" d="M19.13,10.989v10.844h13.012v5.985H19.13v22.207c0,3.816,1.128,5.812,4.511,5.812
		c2.516,0,4.164-2.255,5.812-7.199l4.424,1.562c-2.082,8.588-6.593,12.23-13.186,12.23c-7.807,0-11.711-4.337-11.711-12.058V27.818
		H1.434v-5.985h7.721v-9.716L19.13,10.989z"/>
	<path fill="#C85432" d="M36.307,55.144h6.159V8.561h-6.159V1.794h16.222v29.233c3.903-6.939,8.328-10.235,14.4-10.235
		c7.374,0,11.364,5.204,11.364,13.186v21.166h6.159v6.419h-21.6v-6.419h5.378V36.406c0-2.862-0.694-5.118-2.082-6.506
		c-1.041-1.128-2.516-1.648-4.337-1.648c-4.598,0-9.282,4.424-9.282,11.537v15.354h5.292v6.419H36.307V55.144z"/>
	<path fill="#C85432" d="M99.375,42.479c0.347,9.802,4.424,13.792,11.624,13.792c4.771,0,8.241-2.081,10.41-7.199h5.205
		c-1.995,8.501-7.98,13.358-17.87,13.358c-12.665,0-20.125-8.675-20.125-20.472c0-12.145,8.588-21.253,20.298-21.253
		c12.665,0,18.39,10.149,17.957,21.773H99.375z M99.462,37.881h17.349c-0.521-7.808-2.949-12.058-8.415-12.058
		C103.452,25.823,100.156,29.032,99.462,37.881z"/>
</g>
<g enable-background="new    ">
	<path fill="#C85432" d="M4.123,136.475h6.939v-27.325H4.123v-6.419h17.089v33.744h6.939v6.419H4.123V136.475z M8.98,89.197
		c0-3.816,2.689-6.593,6.593-6.593c3.904,0,6.506,2.516,6.506,6.333c0,3.816-2.602,6.593-6.506,6.593
		C11.67,95.53,8.98,92.928,8.98,89.197z"/>
	<path fill="#C85432" d="M47.584,92.32v10.844h13.012v5.985H47.584v22.207c0,3.816,1.128,5.812,4.511,5.812
		c2.516,0,4.164-2.255,5.812-7.199l4.424,1.562c-2.082,8.588-6.593,12.23-13.186,12.23c-7.807,0-11.711-4.337-11.711-12.058v-22.554
		h-7.547v-5.985h7.721v-9.716L47.584,92.32z"/>
	<path fill="#C85432" d="M65.976,133.005c0-2.776,0.954-5.205,2.95-7.2c2.949-2.949,7.2-4.251,15.701-5.465
		c4.945-0.694,5.639-0.781,5.639-2.082v-3.903c0-5.118-2.429-7.113-7.634-7.113c-2.342,0-4.25,0.434-6.072,1.475
		c1.388,0.78,2.342,2.429,2.342,4.337c0,2.776-2.168,5.031-5.552,5.031c-3.817,0-5.812-2.689-5.812-5.552
		c0-6.766,8.154-10.496,17.523-10.496c10.409,0,15.267,4.598,15.267,13.012v19.432c0,1.908,0.694,2.688,2.429,2.688
		c1.127,0,2.168-1.127,2.949-3.557l3.557,1.648c-1.909,5.726-4.945,8.067-9.716,8.067c-4.164,0-7.807-2.255-8.067-7.634h-0.434
		c-2.429,5.118-7.634,7.808-13.099,7.808C70.66,143.501,65.976,139.25,65.976,133.005z M90.265,128.754v-5.639
		c-0.781,0.347-1.735,0.521-3.903,0.867c-7.46,1.215-9.716,2.603-9.716,7.2c0,3.47,1.822,5.985,5.985,5.985
		C86.448,137.168,90.265,133.698,90.265,128.754z"/>
	<path fill="#C85432" d="M109.265,136.475h6.94V89.892h-6.94v-6.767h17.002v53.35h6.939v6.419h-23.942V136.475z"/>
	<path fill="#C85432" d="M138.067,136.475h6.939v-27.325h-6.939v-6.419h17.089v33.744h6.939v6.419h-24.028V136.475z M142.924,89.197
		c0-3.816,2.689-6.593,6.593-6.593c3.904,0,6.506,2.516,6.506,6.333c0,3.816-2.602,6.593-6.506,6.593
		C145.614,95.53,142.924,92.928,142.924,89.197z"/>
	<path fill="#C85432" d="M166.607,133.005c0-2.776,0.955-5.205,2.95-7.2c2.949-2.949,7.2-4.251,15.701-5.465
		c4.945-0.694,5.639-0.781,5.639-2.082v-3.903c0-5.118-2.429-7.113-7.634-7.113c-2.342,0-4.25,0.434-6.072,1.475
		c1.388,0.78,2.342,2.429,2.342,4.337c0,2.776-2.168,5.031-5.552,5.031c-3.817,0-5.812-2.689-5.812-5.552
		c0-6.766,8.154-10.496,17.523-10.496c10.409,0,15.267,4.598,15.267,13.012v19.432c0,1.908,0.694,2.688,2.429,2.688
		c1.127,0,2.168-1.127,2.949-3.557l3.557,1.648c-1.909,5.726-4.945,8.067-9.716,8.067c-4.164,0-7.807-2.255-8.067-7.634h-0.434
		c-2.429,5.118-7.634,7.808-13.099,7.808C171.292,143.501,166.607,139.25,166.607,133.005z M190.896,128.754v-5.639
		c-0.781,0.347-1.735,0.521-3.904,0.867c-7.46,1.215-9.715,2.603-9.715,7.2c0,3.47,1.822,5.985,5.985,5.985
		C187.079,137.168,190.896,133.698,190.896,128.754z"/>
	<path fill="#C85432" d="M211.024,136.475h6.072v-27.325h-6.072v-6.419h15.788v10.322c3.817-7.113,8.328-10.93,14.833-10.93
		c7.374,0,11.364,5.204,11.364,13.186v21.166h6.159v6.419h-21.6v-6.419h5.378v-18.737c0-2.862-0.694-5.118-2.082-6.506
		c-1.041-1.128-2.516-1.648-4.424-1.648c-4.511,0-9.195,4.424-9.195,11.537v15.354h5.292v6.419h-21.513V136.475z"/>
	<path fill="#C85432" d="M278.951,136.475h6.159v-27.325h-7.633v-5.985h7.633v-1.735c0-13.186,8.848-18.824,17.783-18.824
		c7.807,0,11.884,3.557,11.884,8.067c0,3.123-2.256,5.813-5.465,5.813c-3.47,0-5.726-1.821-5.726-5.552
		c0-0.954,0.347-2.342,0.868-3.21c-0.607-0.347-1.388-0.521-2.603-0.521c-4.077,0-6.94,2.689-6.94,12.665v3.297h11.798v5.985
		h-11.538v27.325h8.848v6.419h-25.069V136.475z"/>
	<path fill="#C85432" d="M309.922,133.005c0-2.776,0.954-5.205,2.949-7.2c2.949-2.949,7.2-4.251,15.701-5.465
		c4.944-0.694,5.639-0.781,5.639-2.082v-3.903c0-5.118-2.429-7.113-7.634-7.113c-2.342,0-4.25,0.434-6.072,1.475
		c1.388,0.78,2.343,2.429,2.343,4.337c0,2.776-2.169,5.031-5.552,5.031c-3.817,0-5.813-2.689-5.813-5.552
		c0-6.766,8.154-10.496,17.522-10.496c10.41,0,15.268,4.598,15.268,13.012v19.432c0,1.908,0.694,2.688,2.429,2.688
		c1.128,0,2.169-1.127,2.949-3.557l3.557,1.648c-1.908,5.726-4.944,8.067-9.715,8.067c-4.164,0-7.808-2.255-8.067-7.634h-0.435
		c-2.429,5.118-7.633,7.808-13.099,7.808C314.606,143.501,309.922,139.25,309.922,133.005z M334.211,128.754v-5.639
		c-0.78,0.347-1.735,0.521-3.903,0.867c-7.46,1.215-9.716,2.603-9.716,7.2c0,3.47,1.821,5.985,5.985,5.985
		C330.395,137.168,334.211,133.698,334.211,128.754z"/>
	<path fill="#C85432" d="M354.339,136.475h6.072v-27.325h-6.072v-6.419h15.788v9.802c2.169-7.026,7.2-10.409,12.145-10.409
		c4.685,0,7.46,3.383,7.46,7.286c0,3.557-2.516,6.42-5.898,6.42s-5.985-1.995-5.985-5.552c0-0.348,0.087-0.781,0.173-1.128
		c-3.209,0-5.985,3.644-7.46,8.675v18.65h7.547v6.419h-23.769V136.475z"/>
	<path fill="#C85432" d="M448.374,102.123c7.2,0,10.93,5.204,10.93,13.186v21.166h6.072v6.419h-21.079v-6.419h4.857v-18.737
		c0-2.949-0.607-5.292-1.995-6.68c-0.954-0.954-2.255-1.475-3.99-1.475c-3.99,0-8.848,4.424-8.848,11.537v15.354h4.857v6.419
		h-19.865v-6.419h4.858v-18.737c0-2.949-0.521-5.292-1.908-6.68c-1.041-0.954-2.256-1.475-4.077-1.475
		c-4.077,0-8.849,4.424-8.849,11.537v15.354h4.858v6.419h-21.08v-6.419h6.072v-27.325h-6.072v-6.419h15.788v10.322
		c3.816-7.113,8.501-10.93,14.486-10.93c6.072,0,9.89,3.47,10.583,10.409C437.964,105.593,442.476,102.123,448.374,102.123z"/>
	<path fill="#C85432" d="M468.679,136.475h6.159V89.892h-6.159v-6.767H484.9v29.233c3.903-6.939,8.327-10.235,14.399-10.235
		c7.374,0,11.364,5.204,11.364,13.186v21.166h6.159v6.419h-21.601v-6.419h5.379v-18.737c0-2.862-0.694-5.118-2.082-6.506
		c-1.041-1.128-2.516-1.648-4.337-1.648c-4.598,0-9.282,4.424-9.282,11.537v15.354h5.291v6.419h-21.513V136.475z"/>
	<path fill="#C85432" d="M520.989,123.028c0-12.317,8.588-20.992,20.732-20.992c12.578,0,20.732,8.327,20.732,20.646
		s-8.588,21.079-20.732,21.079C529.057,143.761,520.989,135.347,520.989,123.028z M551.351,122.855
		c0-11.017-3.644-15.614-9.976-15.614c-6.333,0-9.282,4.684-9.282,15.614c0,10.93,3.557,15.701,9.977,15.701
		C548.228,138.557,551.351,133.785,551.351,122.855z"/>
	<path fill="#C85432" d="M572.868,130.315v-21.166h-6.072v-6.419h16.222v25.156c0,2.862,0.521,5.291,1.995,6.679
		c0.954,0.955,2.342,1.476,4.164,1.476c4.511,0,9.194-4.425,9.194-11.451v-15.44h-6.245v-6.419h16.395v33.744h6.159v6.419h-15.875
		V132.57c-3.816,7.2-8.327,11.018-14.746,11.018C576.685,143.588,572.868,138.383,572.868,130.315z"/>
	<path fill="#C85432" d="M619.802,128.667h5.898c2.689,5.985,7.721,10.063,12.926,10.063c4.25,0,6.072-1.995,6.072-4.857
		c0-3.297-2.43-4.857-10.41-6.939c-9.629-2.603-13.879-5.899-13.879-12.578c0-6.767,5.639-12.318,14.227-12.318
		c4.511,0,8.327,1.648,10.496,4.685l1.041-4.685h5.812v13.793h-5.812c-2.949-5.466-6.072-8.936-11.104-8.936
		c-3.123,0-5.639,1.648-5.639,4.598c0,3.21,2.775,4.771,10.063,6.68c9.108,2.429,14.14,5.378,14.14,12.665
		c0,6.419-5.378,12.925-14.747,12.925c-5.465,0-9.629-2.342-12.231-5.465l-1.127,5.378h-5.726V128.667z"/>
	<path fill="#C85432" d="M669.77,123.81c0.347,9.802,4.424,13.792,11.624,13.792c4.771,0,8.241-2.081,10.409-7.199h5.205
		c-1.995,8.501-7.98,13.358-17.87,13.358c-12.664,0-20.125-8.675-20.125-20.472c0-12.145,8.588-21.253,20.299-21.253
		c12.665,0,18.391,10.149,17.957,21.773H669.77z M669.856,119.212h17.349c-0.52-7.808-2.949-12.058-8.414-12.058
		C673.847,107.154,670.55,110.363,669.856,119.212z"/>
</g>
</svg>
